<?xml version="1.0" encoding="UTF-8" standalone="no"?>
<!DOCTYPE svg PUBLIC "-//W3C//DTD SVG 1.1//EN" "http://www.w3.org/Graphics/SVG/1.1/DTD/svg11.dtd">
<!-- Generated by graphviz version 2.40.1 (20161225.0304)
 -->
<!-- Title: CoCreationLab Pages: 1 -->
<svg width="550pt" height="449pt" viewBox="0.00 0.00 549.59 449.00" xmlns="http://www.w3.org/2000/svg" xmlns:xlink="http://www.w3.org/1999/xlink">
<defs>
  <style type="text/css">
    @font-face {
        font-family: 'WorkSans';
        src: url('/assets/fonts/WorkSans-VariableFont_wght.woff2') format('woff2');
    }
    text {
      font-family: 'WorkSans', sans-serif;
    }
  </style>
</defs>
<g id="graph0" class="graph" transform="scale(1 1) rotate(0) translate(36 413)">
<title>Co-Creation Lab</title>
<g id="clust1" class="cluster">
<title>cluster_0</title>
</g>
<!-- Art -->
<g id="node1" class="node">
<title>Art</title>
<ellipse fill="none" stroke="#9900fc" cx="62.4418" cy="-248" rx="23.813" ry="23.813"/>
<text text-anchor="middle" x="62.4418" y="-243.8" font-family="WorkSans" font-size="14.00" fill="#9900fc">Art</text>
</g>
<!-- Co&#45;Creation Lab -->
<g id="node7" class="node">
<title>Co-Creation Lab</title>
<ellipse fill="#9900fc" stroke="#9900fc" cx="221.0851" cy="-164" rx="76.4037" ry="76.4037"/>
<text text-anchor="middle" x="221.0851" y="-159.8" font-family="WorkSans" font-size="14.00" fill="#ffffff">Co-Creation Lab</text>
</g>
<!-- Art&#45;&gt;Co&#45;Creation Lab -->
<g id="edge1" class="edge">
<title>Art-&gt;Co-Creation Lab</title>
<path fill="none" stroke="#000000" d="M83.8371,-236.6714C99.666,-228.2901 122.2617,-216.326 144.5621,-204.5182"/>
<polygon fill="#000000" stroke="#000000" points="146.2108,-207.6056 153.4106,-199.8329 142.9352,-201.4192 146.2108,-207.6056"/>
</g>
<!-- Culture -->
<g id="node2" class="node">
<title>Culture</title>
<ellipse fill="none" stroke="#9900fc" cx="62.4418" cy="-166" rx="40.005" ry="40.005"/>
<text text-anchor="middle" x="62.4418" y="-161.8" font-family="WorkSans" font-size="14.00" fill="#9900fc">Culture</text>
</g>
<!-- Culture&#45;&gt;Co&#45;Creation Lab -->
<g id="edge2" class="edge">
<title>Culture-&gt;Co-Creation Lab</title>
<path fill="none" stroke="#000000" d="M102.4742,-165.4953C112.313,-165.3713 123.2307,-165.2336 134.3444,-165.0935"/>
<polygon fill="#000000" stroke="#000000" points="134.6256,-168.5904 144.5806,-164.9645 134.5372,-161.5909 134.6256,-168.5904"/>
</g>
<!-- Activism -->
<g id="node3" class="node">
<title>Activism</title>
<ellipse fill="none" stroke="#9900fc" cx="62.4418" cy="-62" rx="46.3836" ry="46.3836"/>
<text text-anchor="middle" x="62.4418" y="-57.8" font-family="WorkSans" font-size="14.00" fill="#9900fc">Activism</text>
</g>
<!-- Activism&#45;&gt;Co&#45;Creation Lab -->
<g id="edge3" class="edge">
<title>Activism-&gt;Co-Creation Lab</title>
<path fill="none" stroke="#000000" d="M101.657,-87.2135C115.6698,-96.223 131.9487,-106.6896 147.8951,-116.9424"/>
<polygon fill="#000000" stroke="#000000" points="146.3992,-120.1416 156.7035,-122.6058 150.1849,-114.2536 146.3992,-120.1416"/>
</g>
<!-- Access -->
<g id="node4" class="node">
<title>Access</title>
<ellipse fill="none" stroke="#9900fc" cx="397.4364" cy="-54" rx="38.2587" ry="38.2587"/>
<text text-anchor="middle" x="397.4364" y="-49.8" font-family="WorkSans" font-size="14.00" fill="#9900fc">Access</text>
</g>
<!-- Autonomy -->
<g id="node5" class="node">
<title>Autonomy</title>
<ellipse fill="none" stroke="#9900fc" cx="397.4364" cy="-163" rx="52.1925" ry="52.1925"/>
<text text-anchor="middle" x="397.4364" y="-158.8" font-family="WorkSans" font-size="14.00" fill="#9900fc">Autonomy</text>
</g>
<!-- Sustainability -->
<g id="node6" class="node">
<title>Sustainability</title>
<ellipse fill="none" stroke="#9900fc" cx="397.4364" cy="-297" rx="64.2998" ry="64.2998"/>
<text text-anchor="middle" x="397.4364" y="-292.8" font-family="WorkSans" font-size="14.00" fill="#9900fc">Sustainability</text>
</g>
<!-- Co&#45;Creation Lab&#45;&gt;Access -->
<g id="edge4" class="edge">
<title>Co-Creation Lab-&gt;Access</title>
<path fill="none" stroke="#000000" d="M285.7504,-123.6647C309.1463,-109.0714 334.9244,-92.9922 355.8146,-79.9618"/>
<polygon fill="#000000" stroke="#000000" points="357.8147,-82.8393 364.4471,-74.5772 354.11,-76.9 357.8147,-82.8393"/>
</g>
<!-- Co&#45;Creation Lab&#45;&gt;Autonomy -->
<g id="edge5" class="edge">
<title>Co-Creation Lab-&gt;Autonomy</title>
<path fill="none" stroke="#000000" d="M297.4097,-163.5672C309.7933,-163.497 322.4945,-163.425 334.5122,-163.3568"/>
<polygon fill="#000000" stroke="#000000" points="334.8922,-166.8548 344.8722,-163.2981 334.8525,-159.8549 334.8922,-166.8548"/>
</g>
<!-- Co&#45;Creation Lab&#45;&gt;Sustainability -->
<g id="edge6" class="edge">
<title>Co-Creation Lab-&gt;Sustainability</title>
<path fill="none" stroke="#000000" d="M282.2693,-210.1437C300.2995,-223.7417 319.9961,-238.5964 337.92,-252.1141"/>
<polygon fill="#000000" stroke="#000000" points="335.9267,-254.9946 346.0182,-258.2216 340.1417,-249.4058 335.9267,-254.9946"/>
</g>
</g>
</svg>